<svg xmlns="http://www.w3.org/2000/svg" viewBox="0 0 24 30" fill="none" x="0px" y="0px"><path d="M20 18C20.2652 18 20.5196 17.8946 20.7071 17.7071C20.8946 17.5195 21 17.2652 21 17V13C21 12.7348 20.8946 12.4804 20.7071 12.2929C20.5196 12.1053 20.2652 12 20 12H13V9.85797C13.9427 9.61457 14.7642 9.03574 15.3106 8.22996C15.857 7.42418 16.0908 6.44678 15.9681 5.48097C15.8454 4.51515 15.3747 3.62724 14.6442 2.98365C13.9137 2.34006 12.9736 1.98499 12 1.98499C11.0264 1.98499 10.0863 2.34006 9.35577 2.98365C8.62526 3.62724 8.15456 4.51515 8.03188 5.48097C7.90921 6.44678 8.14299 7.42418 8.6894 8.22996C9.23581 9.03574 10.0573 9.61457 11 9.85797V12H4C3.73478 12 3.48043 12.1053 3.29289 12.2929C3.10536 12.4804 3 12.7348 3 13V17C3 17.2652 3.10536 17.5195 3.29289 17.7071C3.48043 17.8946 3.73478 18 4 18C4.26522 18 4.51957 17.8946 4.70711 17.7071C4.89464 17.5195 5 17.2652 5 17V14H11V17C11 17.2652 11.1054 17.5195 11.2929 17.7071C11.4804 17.8946 11.7348 18 12 18C12.2652 18 12.5196 17.8946 12.7071 17.7071C12.8946 17.5195 13 17.2652 13 17V14H19V17C19 17.2652 19.1054 17.5195 19.2929 17.7071C19.4804 17.8946 19.7348 18 20 18ZM12 7.99997C11.6044 7.99997 11.2178 7.88267 10.8889 7.66291C10.56 7.44314 10.3036 7.13079 10.1522 6.76534C10.0009 6.39988 9.96126 5.99775 10.0384 5.60979C10.1156 5.22183 10.3061 4.86546 10.5858 4.58575C10.8655 4.30605 11.2219 4.11557 11.6098 4.0384C11.9978 3.96123 12.3999 4.00083 12.7654 4.15221C13.1308 4.30358 13.4432 4.55993 13.6629 4.88883C13.8827 5.21773 14 5.60441 14 5.99997C14 6.5304 13.7893 7.03911 13.4142 7.41418C13.0391 7.78926 12.5304 7.99997 12 7.99997ZM23 21C23 21.2652 22.8946 21.5195 22.7071 21.7071C22.5196 21.8946 22.2652 22 22 22H18C17.7348 22 17.4804 21.8946 17.2929 21.7071C17.1054 21.5195 17 21.2652 17 21C17 20.7348 17.1054 20.4804 17.2929 20.2929C17.4804 20.1053 17.7348 20 18 20H22C22.2652 20 22.5196 20.1053 22.7071 20.2929C22.8946 20.4804 23 20.7348 23 21ZM1 21C1 20.7348 1.10536 20.4804 1.29289 20.2929C1.48043 20.1053 1.73478 20 2 20H6C6.26522 20 6.51957 20.1053 6.70711 20.2929C6.89464 20.4804 7 20.7348 7 21C7 21.2652 6.89464 21.5195 6.70711 21.7071C6.51957 21.8946 6.26522 22 6 22H2C1.73478 22 1.48043 21.8946 1.29289 21.7071C1.10536 21.5195 1 21.2652 1 21ZM14 20C14.2652 20 14.5196 20.1053 14.7071 20.2929C14.8946 20.4804 15 20.7348 15 21C15 21.2652 14.8946 21.5195 14.7071 21.7071C14.5196 21.8946 14.2652 22 14 22H10C9.73478 22 9.48043 21.8946 9.29289 21.7071C9.10536 21.5195 9 21.2652 9 21C9 20.7348 9.10536 20.4804 9.29289 20.2929C9.48043 20.1053 9.73478 20 10 20H14Z" fill="black"/><text x="0" y="39" fill="#000000" font-size="5px" font-weight="bold" font-family="'Helvetica Neue', Helvetica, Arial-Unicode, Arial, Sans-serif">Created by MEI YANI SORMIN</text><text x="0" y="44" fill="#000000" font-size="5px" font-weight="bold" font-family="'Helvetica Neue', Helvetica, Arial-Unicode, Arial, Sans-serif">from the Noun Project</text></svg>